<?xml version="1.0" encoding="UTF-8"?>

<svg version="1.2" baseProfile="tiny" width="122.33mm" height="68.75mm" viewBox="4262 4707 12233 6875" preserveAspectRatio="xMidYMid" fill-rule="evenodd" stroke-width="28.222" stroke-linejoin="round" xmlns="http://www.w3.org/2000/svg" xmlns:xlink="http://www.w3.org/1999/xlink" xml:space="preserve">
 <g visibility="visible" id="Slide_1">
  <g>
   <path fill="rgb(0,0,0)" stroke="none" d="M 13696,11455 C 12807,11582 5477,11557 5060,11455 4706,11369 3790,10820 4679,9804 5240,9163 5681,8868 5929,8606 6228,8290 6460,7985 6838,8011 7027,8054 11591,9060 13823,9804 14204,9931 14966,10820 13696,11455 Z"/>
   <path fill="none" stroke="rgb(0,0,0)" id="Drawing_1_0" stroke-width="81" stroke-linejoin="round" d="M 13696,11455 C 12807,11582 5477,11557 5060,11455 4706,11369 3790,10820 4679,9804 5240,9163 5681,8868 5929,8606 6228,8290 6460,7985 6838,8011 7027,8054 11591,9060 13823,9804 14204,9931 14966,10820 13696,11455 Z"/>
  </g>
  <g>
   <path fill="rgb(255,255,255)" stroke="none" d="M 13446,11057 C 13352,11057 13273,11036 13192,10989 13111,10942 13053,10884 13006,10803 12959,10722 12938,10643 12938,10549 12938,10455 12959,10376 13006,10295 13053,10214 13111,10156 13192,10109 13273,10062 13352,10041 13446,10041 13540,10041 13619,10062 13700,10109 13781,10156 13839,10214 13886,10295 13933,10376 13954,10455 13954,10549 13954,10643 13933,10722 13886,10803 13839,10884 13781,10942 13700,10989 13619,11036 13540,11057 13446,11057 L 13446,11057 Z"/>
   <path fill="none" stroke="rgb(128,128,128)" id="Drawing_2_0" stroke-linejoin="round" d="M 13446,11057 C 13352,11057 13273,11036 13192,10989 13111,10942 13053,10884 13006,10803 12959,10722 12938,10643 12938,10549 12938,10455 12959,10376 13006,10295 13053,10214 13111,10156 13192,10109 13273,10062 13352,10041 13446,10041 13540,10041 13619,10062 13700,10109 13781,10156 13839,10214 13886,10295 13933,10376 13954,10455 13954,10549 13954,10643 13933,10722 13886,10803 13839,10884 13781,10942 13700,10989 13619,11036 13540,11057 13446,11057 L 13446,11057 Z"/>
  </g>
  <g>
   <path fill="rgb(255,255,255)" stroke="none" d="M 5191,11057 C 5097,11057 5018,11036 4937,10989 4856,10942 4798,10884 4751,10803 4704,10722 4683,10643 4683,10549 4683,10455 4704,10376 4751,10295 4798,10214 4856,10156 4937,10109 5018,10062 5097,10041 5191,10041 5285,10041 5364,10062 5445,10109 5526,10156 5584,10214 5631,10295 5678,10376 5699,10455 5699,10549 5699,10643 5678,10722 5631,10803 5584,10884 5526,10942 5445,10989 5364,11036 5285,11057 5191,11057 L 5191,11057 Z"/>
   <path fill="none" stroke="rgb(128,128,128)" id="Drawing_3_0" stroke-linejoin="round" d="M 5191,11057 C 5097,11057 5018,11036 4937,10989 4856,10942 4798,10884 4751,10803 4704,10722 4683,10643 4683,10549 4683,10455 4704,10376 4751,10295 4798,10214 4856,10156 4937,10109 5018,10062 5097,10041 5191,10041 5285,10041 5364,10062 5445,10109 5526,10156 5584,10214 5631,10295 5678,10376 5699,10455 5699,10549 5699,10643 5678,10722 5631,10803 5584,10884 5526,10942 5445,10989 5364,11036 5285,11057 5191,11057 L 5191,11057 Z"/>
  </g>
  <g>
   <path fill="rgb(255,255,255)" stroke="none" d="M 6776,8929 C 6706,8929 6646,8913 6586,8878 6525,8843 6481,8799 6446,8739 6411,8678 6395,8618 6395,8548 6395,8478 6411,8418 6446,8358 6481,8297 6525,8253 6586,8218 6646,8183 6706,8167 6776,8167 6846,8167 6906,8183 6967,8218 7027,8253 7071,8297 7106,8358 7141,8418 7157,8478 7157,8548 7157,8618 7141,8678 7106,8739 7071,8799 7027,8843 6967,8878 6906,8913 6846,8929 6776,8929 L 6776,8929 Z"/>
   <path fill="none" stroke="rgb(128,128,128)" id="Drawing_4_0" stroke-linejoin="round" d="M 6776,8929 C 6706,8929 6646,8913 6586,8878 6525,8843 6481,8799 6446,8739 6411,8678 6395,8618 6395,8548 6395,8478 6411,8418 6446,8358 6481,8297 6525,8253 6586,8218 6646,8183 6706,8167 6776,8167 6846,8167 6906,8183 6967,8218 7027,8253 7071,8297 7106,8358 7141,8418 7157,8478 7157,8548 7157,8618 7141,8678 7106,8739 7071,8799 7027,8843 6967,8878 6906,8913 6846,8929 6776,8929 L 6776,8929 Z"/>
  </g>
  <g>
   <path fill="rgb(0,0,0)" stroke="none" d="M 14970,8644 C 14970,9618 14970,10803 14970,11184 15224,11311 15944,11311 16494,11311 15944,10337 15520,9618 14970,8644 Z"/>
   <path fill="none" stroke="rgb(0,0,0)" id="Drawing_5_0" stroke-linejoin="round" d="M 14970,8644 C 14970,9618 14970,10803 14970,11184 15224,11311 15944,11311 16494,11311 15944,10337 15520,9618 14970,8644 Z"/>
  </g>
  <g>
   <path fill="rgb(0,0,0)" stroke="none" d="M 13827,9560 L 13827,6993 10525,6739 10470,8671 13827,9560 Z"/>
   <rect fill="none" stroke="none" x="10470" y="6739" width="3358" height="2822"/>
  </g>
  <g>
   <path fill="none" stroke="rgb(0,0,0)" id="Drawing_7_0" stroke-width="212" stroke-linejoin="round" stroke-linecap="round" d="M 10271,8390 L 10271,5977 7041,5088 7041,7755 10271,8390 Z"/>
  </g>
  <g>
   <path fill="rgb(0,0,0)" stroke="none" d="M 13700,9533 L 13573,7374 7096,6866 7096,7882 13700,9533 Z"/>
   <rect fill="none" stroke="none" x="7096" y="6866" width="6606" height="2668"/>
  </g>
  <g>
   <path fill="rgb(0,0,0)" stroke="none" d="M 14800,10553 L 14248,10701 14116,10210 15220,9914 15352,10405 14800,10553 Z"/>
   <rect fill="none" stroke="none" x="14116" y="9913" width="1237" height="789"/>
  </g>
  <g>
   <path fill="rgb(0,0,0)" stroke="none" d="M 11472,6866 C 11472,6179 11472,5296 11668,5198 11668,5034 11668,4871 11668,4707 10981,4707 11079,6179 11079,6866 11210,6866 11341,6866 11472,6866 Z"/>
   <rect fill="none" stroke="none" x="11074" y="4707" width="595" height="2160"/>
  </g>
 </g>
</svg>